<svg xmlns="http://www.w3.org/2000/svg" viewBox="0 0 179 15"><path d="M177.92 2.808V.795l-.829 2.013h-.09l-.828-2.013v2.013h-.309V.375h.476l.708 1.77.707-1.77h.476v2.433h-.31zM174.78.663v2.145h-.31V.663h-.686V.375h1.681v.288h-.686zM50.026 14.729V.373h8.494v1.12h-7.271v5.492h7.148v1.118h-7.148v5.507h7.315v1.119h-8.538M11.89 8.021V.425h4.412v.593h-3.765v2.778h3.699v.593h-3.699v3.04h3.788v.592H11.89m51.666.153h4.98l-2.53-6.246-2.45 6.246zm5.436 1.1h-5.87l-2.137 5.455h-1.204L65.383.373h1.265l5.83 14.356h-1.264l-2.222-5.455zm5.963-6.806v12.261H73.73V.373h1.265l8.383 12.344V.373h1.226v14.356h-1.269l-8.38-12.261m26.71 12.288V.4h2.884v11.66h6.193v2.696h-9.077m10.824 0V.4h9.135v2.696h-6.253v2.986h6.151V8.74h-6.151v3.32h6.318v2.696h-9.2m15.651-6.389h3.133l-1.577-4.316-1.556 4.316zm4.024 2.449h-4.917l-1.41 3.94h-2.843L128.183.4h3.027l5.435 14.356h-3.049l-1.432-3.94zm8.591-5.52v9.46h-2.8V.4h2.986l6.161 9.627V.4h2.804v14.356h-2.865l-6.286-9.46M27.642 1.401a6.092 6.092 0 00-6.084 6.084 6.09 6.09 0 006.084 6.082 6.088 6.088 0 006.082-6.082 6.09 6.09 0 00-6.082-6.084zm0 13.416c-4.043 0-7.335-3.29-7.335-7.332 0-4.045 3.292-7.334 7.335-7.334s7.333 3.29 7.333 7.334c0 4.042-3.29 7.332-7.333 7.332zm68.163-2.658a4.629 4.629 0 01-4.623-4.622 4.63 4.63 0 014.623-4.624c1.73 0 3.239.958 4.03 2.366V1.417a7.28 7.28 0 00-4.03-1.213c-4.044 0-7.332 3.288-7.332 7.333 0 4.043 3.288 7.333 7.332 7.333a7.282 7.282 0 004.03-1.215V9.793a4.62 4.62 0 01-4.03 2.366m-51.709 1.408a6.088 6.088 0 01-6.083-6.082 6.09 6.09 0 016.083-6.084 6.05 6.05 0 014.139 1.639V1.437A7.289 7.289 0 0044.095.15c-4.043 0-7.332 3.29-7.332 7.334 0 4.042 3.289 7.332 7.333 7.332 1.535 0 2.96-.477 4.139-1.287v-1.603a6.052 6.052 0 01-4.14 1.64m107.654-4.453V.357h2.882v8.756c0 1.887.892 3.174 2.864 3.174 1.89 0 2.823-1.328 2.823-3.196V.357h2.883v8.734c0 3.404-1.992 5.892-5.747 5.892-3.9 0-5.705-2.343-5.705-5.87m16.142-6.265v3.36h1.347c1.06 0 1.643-.685 1.643-1.701 0-1.017-.583-1.66-1.643-1.66h-1.347zm1.578 5.85h-1.578v6.018h-2.862V.357h4.44c2.863 0 4.397 1.472 4.397 4.13 0 2.592-1.743 4.21-4.397 4.21zM2.422 1.018v7.003h-.647V1.018H.07V.425h4.086v.593H2.422m8.308 7.003h-.647V4.355H5.889v3.666h-.648V.425h.648v3.327h4.194V.425h.647v7.596" fill="#FFF" fill-rule="evenodd"/></svg>